<svg width="1104" height="303" viewBox="0 0 1104 303" fill="none" xmlns="http://www.w3.org/2000/svg">
    <rect x="1084" y="110" width="20" height="84" fill="black"/>
    <rect y="74" width="20" height="156" fill="#CA0000"/>
    <mask id="path-3-outside-1_9_45" maskUnits="userSpaceOnUse" x="43" y="54" width="1017" height="194" fill="black">
        <rect fill="white" x="43" y="54" width="1017" height="194"/>
        <path d="M116.676 242H46.7188V60.1818H115.966C134.669 60.1818 150.826 63.8217 164.439 71.1016C178.111 78.3222 188.646 88.7389 196.044 102.352C203.501 115.905 207.23 132.152 207.23 151.091C207.23 170.03 203.531 186.306 196.133 199.919C188.735 213.473 178.259 223.889 164.705 231.169C151.152 238.39 135.142 242 116.676 242ZM96.0795 200.097H114.901C123.897 200.097 131.561 198.647 137.894 195.746C144.286 192.846 149.139 187.845 152.454 180.743C155.827 173.641 157.514 163.757 157.514 151.091C157.514 138.425 155.798 128.541 152.365 121.439C148.991 114.337 144.02 109.335 137.45 106.435C130.94 103.535 122.95 102.085 113.48 102.085H96.0795V200.097ZM350.168 60.1818H399.529V176.659C399.529 190.509 396.214 202.494 389.585 212.614C383.016 222.676 373.842 230.459 362.064 235.963C350.286 241.408 336.614 244.131 321.048 244.131C305.364 244.131 291.633 241.408 279.855 235.963C268.077 230.459 258.904 222.676 252.334 212.614C245.824 202.494 242.568 190.509 242.568 176.659V60.1818H291.929V172.398C291.929 178.02 293.172 183.051 295.658 187.49C298.144 191.87 301.576 195.303 305.956 197.788C310.395 200.274 315.426 201.517 321.048 201.517C326.73 201.517 331.761 200.274 336.141 197.788C340.521 195.303 343.953 191.87 346.439 187.49C348.925 183.051 350.168 178.02 350.168 172.398V60.1818ZM605.233 128.364H555.162C554.806 124.221 553.859 120.462 552.321 117.089C550.841 113.715 548.77 110.815 546.106 108.388C543.502 105.903 540.336 104.009 536.607 102.707C532.878 101.345 528.646 100.665 523.912 100.665C515.626 100.665 508.612 102.677 502.871 106.702C497.189 110.726 492.869 116.497 489.909 124.013C487.009 131.53 485.559 140.556 485.559 151.091C485.559 162.218 487.039 171.54 489.998 179.056C493.017 186.513 497.367 192.136 503.049 195.924C508.73 199.653 515.566 201.517 523.556 201.517C528.114 201.517 532.198 200.955 535.808 199.83C539.418 198.647 542.555 196.96 545.218 194.77C547.882 192.58 550.042 189.946 551.699 186.869C553.416 183.732 554.57 180.21 555.162 176.304L605.233 176.659C604.641 184.353 602.48 192.195 598.752 200.185C595.023 208.116 589.726 215.455 582.86 222.202C576.054 228.89 567.62 234.276 557.559 238.36C547.497 242.444 535.808 244.486 522.491 244.486C505.801 244.486 490.827 240.905 477.569 233.744C464.371 226.582 453.925 216.047 446.23 202.138C438.596 188.23 434.778 171.214 434.778 151.091C434.778 130.849 438.684 113.804 446.497 99.9545C454.309 86.0459 464.844 75.5405 478.102 68.4382C491.359 61.2767 506.156 57.696 522.491 57.696C533.973 57.696 544.538 59.2644 554.185 62.4013C563.832 65.5381 572.296 70.125 579.576 76.1619C586.855 82.1397 592.715 89.5083 597.154 98.2678C601.593 107.027 604.286 117.059 605.233 128.364ZM681.742 242H628.475L688.489 60.1818H755.961L815.975 242H762.708L722.935 110.253H721.515L681.742 242ZM671.799 170.267H771.941V207.199H671.799V170.267ZM818.066 99.9545V60.1818H976.091V99.9545H921.404V242H872.753V99.9545H818.066ZM1056.53 60.1818V242H1007.17V60.1818H1056.53Z"/>
    </mask>
    <path d="M46.7188 242H43.7188V245H46.7188V242ZM46.7188 60.1818V57.1818H43.7188V60.1818H46.7188ZM164.439 71.1016L163.024 73.747L163.031 73.7507L163.038 73.7543L164.439 71.1016ZM196.044 102.352L193.408 103.784L193.412 103.791L193.416 103.798L196.044 102.352ZM196.133 199.919L198.766 201.356L198.769 201.352L196.133 199.919ZM164.705 231.169L166.116 233.817L166.125 233.812L164.705 231.169ZM96.0795 200.097H93.0795V203.097H96.0795V200.097ZM137.894 195.746L136.655 193.014L136.645 193.019L137.894 195.746ZM152.454 180.743L149.744 179.456L149.74 179.465L149.735 179.474L152.454 180.743ZM152.365 121.439L149.655 122.726L149.66 122.735L149.664 122.744L152.365 121.439ZM137.45 106.435L136.23 109.176L136.239 109.18L137.45 106.435ZM96.0795 102.085V99.0852H93.0795V102.085H96.0795ZM116.676 239H46.7188V245H116.676V239ZM49.7188 242V60.1818H43.7188V242H49.7188ZM46.7188 63.1818H115.966V57.1818H46.7188V63.1818ZM115.966 63.1818C134.279 63.1818 149.93 66.7443 163.024 73.747L165.854 68.4561C151.723 60.8991 135.059 57.1818 115.966 57.1818V63.1818ZM163.038 73.7543C176.186 80.6982 186.292 90.6898 193.408 103.784L198.68 100.919C191 86.7879 180.036 75.9462 165.84 68.4488L163.038 73.7543ZM193.416 103.798C200.58 116.819 204.23 132.545 204.23 151.091H210.23C210.23 131.758 206.423 114.991 198.672 100.905L193.416 103.798ZM204.23 151.091C204.23 169.64 200.609 185.401 193.497 198.486L198.769 201.352C206.453 187.212 210.23 170.421 210.23 151.091H204.23ZM193.5 198.482C186.379 211.526 176.324 221.523 163.286 228.526L166.125 233.812C180.193 226.255 191.09 215.419 198.766 201.356L193.5 198.482ZM163.295 228.521C150.255 235.468 134.749 239 116.676 239V245C135.535 245 152.048 241.311 166.116 233.817L163.295 228.521ZM96.0795 203.097H114.901V197.097H96.0795V203.097ZM114.901 203.097C124.207 203.097 132.322 201.598 139.143 198.474L136.645 193.019C130.801 195.695 123.586 197.097 114.901 197.097V203.097ZM139.134 198.478C146.254 195.248 151.593 189.682 155.172 182.012L149.735 179.474C146.686 186.009 142.318 190.445 136.655 193.014L139.134 198.478ZM155.164 182.03C158.81 174.353 160.514 163.961 160.514 151.091H154.514C154.514 163.553 152.845 172.928 149.744 179.456L155.164 182.03ZM160.514 151.091C160.514 138.216 158.78 127.816 155.066 120.133L149.664 122.744C152.816 129.266 154.514 138.634 154.514 151.091H160.514ZM155.075 120.152C151.424 112.466 145.954 106.91 138.662 103.691L136.239 109.18C142.086 111.761 146.559 116.207 149.655 122.726L155.075 120.152ZM138.671 103.695C131.672 100.577 123.239 99.0852 113.48 99.0852V105.085C122.661 105.085 130.208 106.493 136.23 109.176L138.671 103.695ZM113.48 99.0852H96.0795V105.085H113.48V99.0852ZM93.0795 102.085V200.097H99.0795V102.085H93.0795ZM350.168 60.1818V57.1818H347.168V60.1818H350.168ZM399.529 60.1818H402.529V57.1818H399.529V60.1818ZM389.585 212.614L387.076 210.971L387.073 210.974L389.585 212.614ZM362.064 235.963L363.323 238.686L363.334 238.681L362.064 235.963ZM279.855 235.963L278.585 238.681L278.596 238.686L279.855 235.963ZM252.334 212.614L249.811 214.237L249.816 214.246L249.822 214.255L252.334 212.614ZM242.568 60.1818V57.1818H239.568V60.1818H242.568ZM291.929 60.1818H294.929V57.1818H291.929V60.1818ZM295.658 187.49L293.04 188.956L293.045 188.963L293.049 188.971L295.658 187.49ZM305.956 197.788L304.475 200.397L304.483 200.402L304.49 200.406L305.956 197.788ZM336.141 197.788L337.622 200.397L336.141 197.788ZM346.439 187.49L349.048 188.971L349.052 188.963L349.057 188.956L346.439 187.49ZM350.168 63.1818H399.529V57.1818H350.168V63.1818ZM396.529 60.1818V176.659H402.529V60.1818H396.529ZM396.529 176.659C396.529 190.011 393.34 201.406 387.076 210.971L392.095 214.258C399.088 203.581 402.529 191.006 402.529 176.659H396.529ZM387.073 210.974C380.834 220.53 372.109 227.957 360.794 233.245L363.334 238.681C375.575 232.96 385.197 224.822 392.097 214.255L387.073 210.974ZM360.805 233.24C349.493 238.47 336.265 241.131 321.048 241.131V247.131C336.964 247.131 351.08 244.346 363.323 238.686L360.805 233.24ZM321.048 241.131C305.71 241.131 292.424 238.469 281.114 233.24L278.596 238.686C290.843 244.348 305.019 247.131 321.048 247.131V241.131ZM281.125 233.245C269.811 227.957 261.085 220.53 254.846 210.974L249.822 214.255C256.722 224.822 266.344 232.96 278.585 238.681L281.125 233.245ZM254.857 210.991C248.703 201.424 245.568 190.022 245.568 176.659H239.568C239.568 190.995 242.944 203.563 249.811 214.237L254.857 210.991ZM245.568 176.659V60.1818H239.568V176.659H245.568ZM242.568 63.1818H291.929V57.1818H242.568V63.1818ZM288.929 60.1818V172.398H294.929V60.1818H288.929ZM288.929 172.398C288.929 178.478 290.278 184.023 293.04 188.956L298.275 186.024C296.066 182.079 294.929 177.562 294.929 172.398H288.929ZM293.049 188.971C295.802 193.822 299.625 197.644 304.475 200.397L307.437 195.179C303.528 192.961 300.485 189.918 298.267 186.009L293.049 188.971ZM304.49 200.406C309.423 203.168 314.968 204.517 321.048 204.517V198.517C315.884 198.517 311.367 197.38 307.422 195.171L304.49 200.406ZM321.048 204.517C327.182 204.517 332.735 203.171 337.622 200.397L334.66 195.179C330.787 197.377 326.279 198.517 321.048 198.517V204.517ZM337.622 200.397C342.472 197.644 346.295 193.822 349.048 188.971L343.83 186.009C341.612 189.918 338.569 192.961 334.66 195.179L337.622 200.397ZM349.057 188.956C351.819 184.023 353.168 178.478 353.168 172.398H347.168C347.168 177.562 346.031 182.079 343.822 186.024L349.057 188.956ZM353.168 172.398V60.1818H347.168V172.398H353.168ZM605.233 128.364V131.364H608.494L608.222 128.113L605.233 128.364ZM555.162 128.364L552.173 128.62L552.408 131.364H555.162V128.364ZM552.321 117.089L549.573 118.294L549.582 118.314L549.591 118.334L552.321 117.089ZM546.106 108.388L544.035 110.559L544.06 110.583L544.086 110.606L546.106 108.388ZM536.607 102.707L535.578 105.525L535.598 105.532L535.618 105.539L536.607 102.707ZM502.871 106.702L501.149 104.245L501.143 104.249L501.137 104.254L502.871 106.702ZM489.909 124.013L487.118 122.914L487.114 122.924L487.111 122.934L489.909 124.013ZM489.998 179.056L487.207 180.155L487.212 180.168L487.217 180.182L489.998 179.056ZM503.049 195.924L501.385 198.42L501.394 198.426L501.403 198.432L503.049 195.924ZM535.808 199.83L536.7 202.695L536.721 202.688L536.743 202.681L535.808 199.83ZM545.218 194.77L547.124 197.087L545.218 194.77ZM551.699 186.869L549.067 185.429L549.063 185.437L549.058 185.446L551.699 186.869ZM555.162 176.304L555.183 173.304L552.585 173.286L552.195 175.855L555.162 176.304ZM605.233 176.659L608.224 176.889L608.47 173.682L605.254 173.659L605.233 176.659ZM598.752 200.185L601.467 201.462L601.47 201.454L598.752 200.185ZM582.86 222.202L584.963 224.342L584.963 224.342L582.86 222.202ZM557.559 238.36L556.43 235.58L557.559 238.36ZM477.569 233.744L476.138 236.38L476.143 236.383L477.569 233.744ZM446.23 202.138L443.601 203.582L443.605 203.591L446.23 202.138ZM446.497 99.9545L449.11 101.429L449.112 101.424L446.497 99.9545ZM478.102 68.4382L479.519 71.0827L479.528 71.0777L478.102 68.4382ZM554.185 62.4013L555.113 59.5483L554.185 62.4013ZM579.576 76.1619L577.661 78.4712L577.666 78.4758L577.672 78.4804L579.576 76.1619ZM597.154 98.2678L594.478 99.6238V99.6238L597.154 98.2678ZM605.233 125.364H555.162V131.364H605.233V125.364ZM558.151 128.107C557.77 123.664 556.748 119.565 555.05 115.844L549.591 118.334C550.971 121.36 551.843 124.778 552.173 128.62L558.151 128.107ZM555.068 115.884C553.424 112.134 551.108 108.887 548.127 106.171L544.086 110.606C546.431 112.743 548.258 115.296 549.573 118.294L555.068 115.884ZM548.178 106.218C545.235 103.41 541.689 101.304 537.596 99.8744L535.618 105.539C538.982 106.714 541.769 108.396 544.035 110.559L548.178 106.218ZM537.636 99.8886C533.521 98.3863 528.931 97.6648 523.912 97.6648V103.665C528.361 103.665 532.236 104.305 535.578 105.525L537.636 99.8886ZM523.912 97.6648C515.124 97.6648 507.481 99.8062 501.149 104.245L504.593 109.158C509.743 105.548 516.127 103.665 523.912 103.665V97.6648ZM501.137 104.254C494.907 108.667 490.256 114.944 487.118 122.914L492.701 125.112C495.481 118.05 499.472 112.786 504.605 109.15L501.137 104.254ZM487.111 122.934C484.044 130.883 482.559 140.294 482.559 151.091H488.559C488.559 140.817 489.975 132.178 492.708 125.093L487.111 122.934ZM482.559 151.091C482.559 162.462 484.068 172.184 487.207 180.155L492.79 177.957C490.01 170.896 488.559 161.974 488.559 151.091H482.559ZM487.217 180.182C490.421 188.096 495.117 194.242 501.385 198.42L504.713 193.428C499.617 190.03 495.613 184.931 492.779 177.931L487.217 180.182ZM501.403 198.432C507.654 202.535 515.086 204.517 523.556 204.517V198.517C516.047 198.517 509.807 196.771 504.695 193.416L501.403 198.432ZM523.556 204.517C528.356 204.517 532.749 203.925 536.7 202.695L534.916 196.966C531.646 197.984 527.871 198.517 523.556 198.517V204.517ZM536.743 202.681C540.671 201.393 544.145 199.536 547.124 197.087L543.313 192.453C540.965 194.383 538.166 195.9 534.873 196.98L536.743 202.681ZM547.124 197.087C550.092 194.646 552.501 191.707 554.341 188.291L549.058 185.446C547.583 188.185 545.671 190.514 543.313 192.453L547.124 197.087ZM554.331 188.309C556.233 184.833 557.489 180.971 558.128 176.753L552.195 175.855C551.651 179.45 550.598 182.63 549.067 185.429L554.331 188.309ZM555.14 179.304L605.211 179.659L605.254 173.659L555.183 173.304L555.14 179.304ZM602.241 176.429C601.681 183.716 599.631 191.208 596.033 198.917L601.47 201.454C605.33 193.183 607.601 184.991 608.224 176.889L602.241 176.429ZM596.037 198.909C592.474 206.488 587.395 213.54 580.758 220.063L584.963 224.342C592.057 217.37 597.573 209.745 601.467 201.462L596.037 198.909ZM580.758 220.063C574.267 226.44 566.178 231.624 556.43 235.58L558.687 241.14C569.062 236.929 577.841 231.341 584.963 224.342L580.758 220.063ZM556.43 235.58C546.798 239.49 535.506 241.486 522.491 241.486V247.486C536.11 247.486 548.196 245.398 558.687 241.14L556.43 235.58ZM522.491 241.486C506.244 241.486 491.769 238.004 478.995 231.104L476.143 236.383C489.885 243.806 505.358 247.486 522.491 247.486V241.486ZM479 231.107C466.335 224.234 456.29 214.125 448.856 200.686L443.605 203.591C451.56 217.969 462.407 228.93 476.138 236.38L479 231.107ZM448.86 200.695C441.525 187.332 437.778 170.842 437.778 151.091H431.778C431.778 171.586 435.666 189.128 443.601 203.582L448.86 200.695ZM437.778 151.091C437.778 131.228 441.611 114.721 449.11 101.429L443.884 98.4806C435.757 112.887 431.778 130.471 431.778 151.091H437.778ZM449.112 101.424C456.663 87.9814 466.795 77.8986 479.519 71.0826L476.685 65.7938C462.893 73.1823 451.956 84.1105 443.881 98.4854L449.112 101.424ZM479.528 71.0777C492.311 64.1725 506.611 60.696 522.491 60.696V54.696C505.701 54.696 490.408 58.381 476.676 65.7987L479.528 71.0777ZM522.491 60.696C533.699 60.696 543.946 62.2267 553.257 65.2542L555.113 59.5483C545.129 56.3022 534.247 54.696 522.491 54.696V60.696ZM553.257 65.2542C562.571 68.2824 570.693 72.6934 577.661 78.4712L581.491 73.8526C573.898 67.5566 565.094 62.7938 555.113 59.5483L553.257 65.2542ZM577.672 78.4804C584.617 84.1831 590.219 91.2191 594.478 99.6238L599.83 96.9117C595.211 87.7975 589.094 80.0962 581.479 73.8434L577.672 78.4804ZM594.478 99.6238C598.717 107.989 601.323 117.636 602.243 128.614L608.222 128.113C607.248 116.483 604.468 106.065 599.83 96.9117L594.478 99.6238ZM681.742 242V245H683.97L684.614 242.867L681.742 242ZM628.475 242L625.626 241.06L624.325 245H628.475V242ZM688.489 60.1818V57.1818H686.32L685.64 59.2415L688.489 60.1818ZM755.961 60.1818L758.809 59.2415L758.13 57.1818H755.961V60.1818ZM815.975 242V245H820.124L818.824 241.06L815.975 242ZM762.708 242L759.836 242.867L760.48 245H762.708V242ZM722.935 110.253L725.807 109.386L725.163 107.253H722.935V110.253ZM721.515 110.253V107.253H719.286L718.643 109.386L721.515 110.253ZM671.799 170.267V167.267H668.799V170.267H671.799ZM771.941 170.267H774.941V167.267H771.941V170.267ZM771.941 207.199V210.199H774.941V207.199H771.941ZM671.799 207.199H668.799V210.199H671.799V207.199ZM681.742 239H628.475V245H681.742V239ZM631.324 242.94L691.338 61.1221L685.64 59.2415L625.626 241.06L631.324 242.94ZM688.489 63.1818H755.961V57.1818H688.489V63.1818ZM753.112 61.1221L813.126 242.94L818.824 241.06L758.809 59.2415L753.112 61.1221ZM815.975 239H762.708V245H815.975V239ZM765.58 241.133L725.807 109.386L720.063 111.12L759.836 242.867L765.58 241.133ZM722.935 107.253H721.515V113.253H722.935V107.253ZM718.643 109.386L678.87 241.133L684.614 242.867L724.387 111.12L718.643 109.386ZM671.799 173.267H771.941V167.267H671.799V173.267ZM768.941 170.267V207.199H774.941V170.267H768.941ZM771.941 204.199H671.799V210.199H771.941V204.199ZM674.799 207.199V170.267H668.799V207.199H674.799ZM818.065 99.9545H815.065V102.955H818.065V99.9545ZM818.065 60.1818V57.1818H815.065V60.1818H818.065ZM976.091 60.1818H979.091V57.1818H976.091V60.1818ZM976.091 99.9545V102.955H979.091V99.9545H976.091ZM921.404 99.9545V96.9545H918.404V99.9545H921.404ZM921.404 242V245H924.404V242H921.404ZM872.753 242H869.753V245H872.753V242ZM872.753 99.9545H875.753V96.9545H872.753V99.9545ZM821.065 99.9545V60.1818H815.065V99.9545H821.065ZM818.065 63.1818H976.091V57.1818H818.065V63.1818ZM973.091 60.1818V99.9545H979.091V60.1818H973.091ZM976.091 96.9545H921.404V102.955H976.091V96.9545ZM918.404 99.9545V242H924.404V99.9545H918.404ZM921.404 239H872.753V245H921.404V239ZM875.753 242V99.9545H869.753V242H875.753ZM872.753 96.9545H818.065V102.955H872.753V96.9545ZM1056.53 60.1818H1059.53V57.1818H1056.53V60.1818ZM1056.53 242V245H1059.53V242H1056.53ZM1007.17 242H1004.17V245H1007.17V242ZM1007.17 60.1818V57.1818H1004.17V60.1818H1007.17ZM1053.53 60.1818V242H1059.53V60.1818H1053.53ZM1056.53 239H1007.17V245H1056.53V239ZM1010.17 242V60.1818H1004.17V242H1010.17ZM1007.17 63.1818H1056.53V57.1818H1007.17V63.1818Z" fill="white" mask="url(#path-3-outside-1_9_45)"/>
</svg>
