<?xml version="1.0"?>
<svg width="1104" height="303" xmlns="http://www.w3.org/2000/svg" xmlns:svg="http://www.w3.org/2000/svg">
 <mask height="194" id="path-3-outside-1_9_45" maskUnits="userSpaceOnUse" width="1017" x="43" y="54">
  <rect fill="white" height="194" id="svg_1" width="1017" x="43" y="54"/>
  <path d="m116.68,242l-69.96,0l0,-181.82l69.25,0c18.7,0 34.86,3.64 48.47,10.92c13.67,7.22 24.21,17.64 31.6,31.25c7.46,13.56 11.19,29.8 11.19,48.74c0,18.94 -3.7,35.22 -11.1,48.83c-7.39,13.55 -17.87,23.97 -31.42,31.25c-13.56,7.22 -29.57,10.83 -48.03,10.83zm-20.6,-41.9l18.82,0c9,0 16.66,-1.45 22.99,-4.35c6.4,-2.9 11.25,-7.91 14.56,-15.01c3.38,-7.1 5.06,-16.98 5.06,-29.65c0,-12.66 -1.71,-22.55 -5.14,-29.65c-3.38,-7.1 -8.35,-12.11 -14.92,-15c-6.51,-2.91 -14.5,-4.36 -23.97,-4.36l-17.4,0l0,98.02zm254.09,-139.92l49.36,0l0,116.48c0,13.85 -3.32,25.83 -9.95,35.95c-6.56,10.07 -15.74,17.85 -27.52,23.35c-11.77,5.45 -25.45,8.17 -41.01,8.17c-15.69,0 -29.42,-2.72 -41.19,-8.17c-11.78,-5.5 -20.96,-13.28 -27.53,-23.35c-6.51,-10.12 -9.76,-22.1 -9.76,-35.95l0,-116.48l49.36,0l0,112.22c0,5.62 1.24,10.65 3.73,15.09c2.48,4.38 5.92,7.81 10.3,10.3c4.43,2.48 9.47,3.73 15.09,3.73c5.68,0 10.71,-1.25 15.09,-3.73c4.38,-2.49 7.81,-5.92 10.3,-10.3c2.49,-4.44 3.73,-9.47 3.73,-15.09l0,-112.22zm255.06,68.18l-50.07,0c-0.35,-4.14 -1.3,-7.9 -2.84,-11.27c-1.48,-3.37 -3.55,-6.28 -6.21,-8.7c-2.61,-2.49 -5.77,-4.38 -9.5,-5.68c-3.73,-1.37 -7.96,-2.04 -12.7,-2.04c-8.28,0 -15.3,2.01 -21.04,6.03c-5.68,4.03 -10,9.8 -12.96,17.31c-2.9,7.52 -4.35,16.55 -4.35,27.08c0,11.13 1.48,20.45 4.44,27.97c3.02,7.45 7.37,13.08 13.05,16.86c5.68,3.73 12.52,5.6 20.51,5.6c4.55,0 8.64,-0.56 12.25,-1.69c3.61,-1.18 6.74,-2.87 9.41,-5.06c2.66,-2.19 4.82,-4.82 6.48,-7.9c1.72,-3.14 2.87,-6.66 3.46,-10.57l50.07,0.36c-0.59,7.69 -2.75,15.53 -6.48,23.53c-3.73,7.93 -9.02,15.27 -15.89,22.01c-6.81,6.69 -15.24,12.08 -25.3,16.16c-10.06,4.08 -21.75,6.13 -35.07,6.13c-16.69,0 -31.66,-3.58 -44.92,-10.75c-13.2,-7.16 -23.64,-17.69 -31.34,-31.6c-7.63,-13.91 -11.45,-30.93 -11.45,-51.05c0,-20.24 3.9,-37.29 11.72,-51.14c7.81,-13.9 18.34,-24.41 31.6,-31.51c13.26,-7.16 28.06,-10.74 44.39,-10.74c11.48,0 22.05,1.56 31.69,4.7c9.65,3.14 18.12,7.73 25.4,13.76c7.28,5.98 13.14,13.35 17.57,22.11c4.44,8.76 7.14,18.79 8.08,30.09zm76.51,113.64l-53.26,0l60.01,-181.82l67.47,0l60.02,181.82l-53.27,0l-39.78,-131.75l-1.42,0l-39.77,131.75zm-9.94,-71.73l100.14,0l0,36.93l-100.14,0l0,-36.93zm146.27,-70.32l0,-39.77l158.02,0l0,39.77l-54.69,0l0,142.05l-48.65,0l0,-142.05l-54.68,0zm238.46,-39.77l0,181.82l-49.36,0l0,-181.82l49.36,0z" id="svg_2"/>
 </mask> 
 <g class="layer">
  <title>Layer 1</title>
  <rect fill="black" height="84" id="svg_3" transform="matrix(1 0 0 1 0 0)" width="20" x="1084" y="110"/>
  <rect fill="#CA0000" height="156" id="svg_4" width="20" y="74"/>
  <path d="m46.72,242l-3,0l0,3l3,0l0,-3zm0,-181.82l0,-3l-3,0l0,3l3,0zm117.72,10.92l-1.42,2.65l0.01,0l0.01,0l1.4,-2.65zm31.6,31.25l-2.63,1.43l0,0.01l0.01,0.01l2.62,-1.45zm0.09,97.57l2.64,1.44l0,-0.01l-2.64,-1.43zm-31.42,31.25l1.41,2.65l0.01,-0.01l-1.42,-2.64zm-68.63,-31.07l-3,0l0,3l3,0l0,-3zm41.81,-4.35l-1.23,-2.74l-0.01,0.01l1.24,2.73zm14.56,-15.01l-2.71,-1.28l0,0.01l0,0l2.71,1.27zm-0.08,-59.3l-2.71,1.29l0,0l0,0.01l2.71,-1.3zm-14.92,-15l-1.22,2.74l0.01,0l1.21,-2.74zm-41.37,-4.36l0,-2.99l-3,0l0,2.99l3,0zm20.6,136.92l-69.96,0l0,6l69.96,0l0,-6zm-66.96,3l0,-181.82l-6,0l0,181.82l6,0zm-3,-178.82l69.25,0l0,-6l-69.25,0l0,6zm69.25,0c18.31,0 33.96,3.56 47.05,10.57l2.83,-5.29c-14.13,-7.56 -30.79,-11.28 -49.88,-11.28l0,6zm47.07,10.57c13.15,6.95 23.25,16.94 30.37,30.03l5.27,-2.86c-7.68,-14.13 -18.64,-24.97 -32.84,-32.47l-2.8,5.3zm30.38,30.05c7.16,13.02 10.81,28.74 10.81,47.29l6,0c0,-19.33 -3.81,-36.1 -11.56,-50.18l-5.25,2.89zm10.81,47.29c0,18.55 -3.62,34.31 -10.73,47.4l5.27,2.86c7.68,-14.14 11.46,-30.93 11.46,-50.26l-6,0zm-10.73,47.39c-7.12,13.05 -17.18,23.04 -30.21,30.05l2.84,5.28c14.06,-7.56 24.96,-18.39 32.64,-32.45l-5.27,-2.88zm-30.21,30.04c-13.04,6.95 -28.54,10.48 -46.61,10.48l0,6c18.85,0 35.37,-3.69 49.44,-11.18l-2.83,-5.3zm-67.21,-25.42l18.82,0l0,-6l-18.82,0l0,6zm18.82,0c9.31,0 17.42,-1.5 24.24,-4.63l-2.49,-5.45c-5.85,2.67 -13.06,4.08 -21.75,4.08l0,6zm24.23,-4.62c7.12,-3.23 12.46,-8.8 16.04,-16.47l-5.43,-2.54c-3.05,6.54 -7.42,10.97 -13.08,13.54l2.47,5.47zm16.03,-16.45c3.65,-7.68 5.35,-18.07 5.35,-30.94l-6,0c0,12.46 -1.67,21.84 -4.77,28.37l5.42,2.57zm5.35,-30.94c0,-12.87 -1.73,-23.27 -5.44,-30.96l-5.41,2.61c3.16,6.53 4.85,15.89 4.85,28.35l6,0zm-5.44,-30.94c-3.65,-7.68 -9.12,-13.24 -16.41,-16.46l-2.42,5.49c5.85,2.58 10.32,7.03 13.42,13.55l5.41,-2.58zm-16.4,-16.46c-7,-3.11 -15.43,-4.6 -25.19,-4.6l0,5.99c9.18,0 16.73,1.41 22.75,4.1l2.44,-5.49zm-25.19,-4.6l-17.4,0l0,5.99l17.4,0l0,-5.99zm-20.4,2.99l0,98.02l6,0l0,-98.02l-6,0zm257.09,-41.9l0,-3l-3,0l0,3l3,0zm49.36,0l3,0l0,-3l-3,0l0,3zm-9.95,152.43l-2.5,-1.64l-0.01,0l2.51,1.64zm-27.52,23.35l1.26,2.73l0.01,-0.01l-1.27,-2.72zm-82.2,0l-1.28,2.72l0.02,0.01l1.26,-2.73zm-27.53,-23.35l-2.52,1.63l0.01,0.01l0,0l2.51,-1.64zm-9.76,-152.43l0,-3l-3,0l0,3l3,0zm49.36,0l3,0l0,-3l-3,0l0,3zm3.73,127.31l-2.62,1.47l0.01,0l0,0.01l2.61,-1.48zm10.3,10.3l-1.48,2.61l0,0l0.01,0.01l1.47,-2.62zm30.18,0l1.48,2.61l-1.48,-2.61zm10.3,-10.3l2.61,1.48l0,-0.01l0.01,0l-2.62,-1.47zm3.73,-124.31l49.36,0l0,-6l-49.36,0l0,6zm46.36,-3l0,116.48l6,0l0,-116.48l-6,0zm0,116.48c0,13.35 -3.19,24.75 -9.45,34.31l5.02,3.29c6.99,-10.68 10.43,-23.25 10.43,-37.6l-6,0zm-9.46,34.31c-6.24,9.56 -14.96,16.99 -26.28,22.28l2.54,5.43c12.24,-5.72 21.87,-13.86 28.77,-24.43l-5.03,-3.28zm-26.26,22.27c-11.32,5.23 -24.55,7.89 -39.76,7.89l0,6c15.91,0 30.03,-2.78 42.27,-8.44l-2.51,-5.45zm-39.76,7.89c-15.34,0 -28.63,-2.66 -39.94,-7.89l-2.51,5.45c12.24,5.66 26.42,8.44 42.45,8.44l0,-6zm-39.92,-7.88c-11.32,-5.29 -20.05,-12.72 -26.28,-22.28l-5.03,3.28c6.9,10.57 16.52,18.71 28.76,24.43l2.55,-5.43zm-26.27,-22.26c-6.16,-9.57 -9.29,-20.97 -9.29,-34.33l-6,0c0,14.34 3.37,26.9 10.24,37.58l5.05,-3.25zm-9.29,-34.33l0,-116.48l-6,0l0,116.48l6,0zm-3,-113.48l49.36,0l0,-6l-49.36,0l0,6zm46.36,-3l0,112.22l6,0l0,-112.22l-6,0zm0,112.22c0,6.08 1.35,11.62 4.11,16.56l5.23,-2.94c-2.2,-3.94 -3.34,-8.46 -3.34,-13.62l-6,0zm4.12,16.57c2.75,4.85 6.58,8.67 11.43,11.43l2.96,-5.22c-3.91,-2.22 -6.95,-5.26 -9.17,-9.17l-5.22,2.96zm11.44,11.44c4.93,2.76 10.48,4.11 16.56,4.11l0,-6c-5.17,0 -9.68,-1.14 -13.63,-3.35l-2.93,5.24zm16.56,4.11c6.13,0 11.69,-1.35 16.57,-4.12l-2.96,-5.22c-3.87,2.2 -8.38,3.34 -13.61,3.34l0,6zm16.57,-4.12c4.85,-2.76 8.68,-6.58 11.43,-11.43l-5.22,-2.96c-2.22,3.91 -5.26,6.95 -9.17,9.17l2.96,5.22zm11.44,-11.44c2.76,-4.94 4.11,-10.48 4.11,-16.56l-6,0c0,5.16 -1.14,9.68 -3.35,13.62l5.24,2.94zm4.11,-16.56l0,-112.22l-6,0l0,112.22l6,0zm252.06,-44.04l0,3l3.26,0l-0.27,-3.25l-2.99,0.25zm-50.07,0l-2.99,0.26l0.24,2.74l2.75,0l0,-3zm-2.84,-11.27l-2.75,1.2l0.01,0.02l0.01,0.02l2.73,-1.24zm-6.21,-8.7l-2.08,2.17l0.03,0.02l0.03,0.03l2.02,-2.22zm-9.5,-5.68l-1.03,2.82l0.02,0l0.02,0.01l0.99,-2.83zm-33.74,3.99l-1.72,-2.45l-0.01,0l0,0l1.73,2.45zm-12.96,17.31l-2.79,-1.1l-0.01,0.01l0,0.01l2.8,1.08zm0.09,55.05l-2.79,1.1l0,0.01l0.01,0.01l2.78,-1.12zm13.05,16.86l-1.67,2.5l0.01,0.01l0.01,0l1.65,-2.51zm32.76,3.91l0.89,2.86l0.02,0l0.02,-0.01l-0.93,-2.85zm9.41,-5.06l1.9,2.32l-1.9,-2.32zm6.48,-7.9l-2.63,-1.44l-0.01,0.01l0,0.01l2.64,1.42zm3.46,-10.57l0.02,-3l-2.59,-0.01l-0.39,2.56l2.96,0.45zm50.07,0.36l2.99,0.23l0.25,-3.21l-3.22,-0.02l-0.02,3zm-6.48,23.53l2.72,1.27l0,-0.01l-2.72,-1.26zm-15.89,22.01l2.1,2.14l0,0l-2.1,-2.14zm-25.3,16.16l-1.13,-2.78l1.13,2.78zm-79.99,-4.62l-1.43,2.64l0,0l1.43,-2.64zm-31.34,-31.6l-2.63,1.44l0.01,0.01l2.62,-1.45zm0.27,-102.19l2.61,1.48l0,-0.01l-2.61,-1.47zm31.6,-31.51l1.42,2.64l0.01,0l-1.43,-2.64zm76.08,-6.04l0.93,-2.85l-0.93,2.85zm25.4,13.76l-1.92,2.31l0.01,0.01l0,0l1.91,-2.32zm17.57,22.11l-2.67,1.35l0,0l2.67,-1.35zm8.08,27.09l-50.07,0l0,6l50.07,0l0,-6zm-47.08,2.75c-0.38,-4.45 -1.4,-8.55 -3.1,-12.27l-5.46,2.49c1.38,3.03 2.25,6.45 2.58,10.29l5.98,-0.51zm-3.08,-12.23c-1.65,-3.75 -3.96,-6.99 -6.94,-9.71l-4.04,4.44c2.34,2.13 4.17,4.69 5.48,7.68l5.5,-2.41zm-6.89,-9.66c-2.94,-2.81 -6.49,-4.92 -10.58,-6.35l-1.98,5.67c3.36,1.17 6.15,2.86 8.41,5.02l4.15,-4.34zm-10.54,-6.33c-4.12,-1.5 -8.71,-2.23 -13.73,-2.23l0,6.01c4.45,0 8.33,0.64 11.67,1.86l2.06,-5.64zm-13.73,-2.23c-8.79,0 -16.43,2.15 -22.76,6.59l3.44,4.91c5.15,-3.61 11.54,-5.49 19.32,-5.49l0,-6.01zm-22.77,6.59c-6.23,4.42 -10.88,10.69 -14.02,18.66l5.58,2.2c2.78,-7.06 6.77,-12.32 11.91,-15.96l-3.47,-4.9zm-14.03,18.68c-3.07,7.95 -4.55,17.36 -4.55,28.16l6,0c0,-10.27 1.42,-18.91 4.15,-26l-5.6,-2.16zm-4.55,28.16c0,11.37 1.51,21.09 4.65,29.07l5.58,-2.2c-2.78,-7.06 -4.23,-15.99 -4.23,-26.87l-6,0zm4.66,29.09c3.2,7.92 7.9,14.06 14.16,18.24l3.33,-4.99c-5.09,-3.4 -9.1,-8.5 -11.93,-15.5l-5.56,2.25zm14.18,18.25c6.25,4.1 13.69,6.09 22.16,6.09l0,-6c-7.51,0 -13.75,-1.75 -18.87,-5.1l-3.29,5.01zm22.16,6.09c4.8,0 9.19,-0.59 13.14,-1.83l-1.78,-5.72c-3.27,1.01 -7.05,1.55 -11.36,1.55l0,6zm13.18,-1.84c3.93,-1.29 7.4,-3.14 10.38,-5.59l-3.81,-4.64c-2.34,1.93 -5.14,3.45 -8.44,4.53l1.87,5.7zm10.38,-5.59c2.97,-2.44 5.38,-5.38 7.22,-8.8l-5.28,-2.84c-1.48,2.74 -3.39,5.06 -5.75,7l3.81,4.64zm7.21,-8.78c1.9,-3.48 3.16,-7.34 3.8,-11.56l-5.93,-0.9c-0.55,3.6 -1.6,6.78 -3.13,9.58l5.26,2.88zm0.81,-9.01l50.07,0.36l0.04,-6l-50.07,-0.36l-0.04,6zm47.1,-2.87c-0.56,7.29 -2.61,14.78 -6.21,22.49l5.44,2.53c3.86,-8.27 6.13,-16.46 6.75,-24.56l-5.98,-0.46zm-6.2,22.48c-3.57,7.58 -8.65,14.63 -15.28,21.15l4.2,4.28c7.1,-6.97 12.61,-14.59 16.51,-22.88l-5.43,-2.55zm-15.28,21.15c-6.49,6.38 -14.58,11.56 -24.33,15.52l2.26,5.56c10.37,-4.21 19.15,-9.8 26.27,-16.8l-4.2,-4.28zm-24.33,15.52c-9.63,3.91 -20.92,5.91 -33.94,5.91l0,6c13.62,0 25.71,-2.09 36.2,-6.35l-2.26,-5.56zm-33.94,5.91c-16.25,0 -30.72,-3.49 -43.49,-10.39l-2.86,5.28c13.74,7.43 29.22,11.11 46.35,11.11l0,-6zm-43.49,-10.38c-12.67,-6.88 -22.71,-16.98 -30.14,-30.42l-5.25,2.9c7.95,14.38 18.8,25.34 32.53,32.79l2.86,-5.27zm-30.14,-30.42c-7.34,-13.36 -11.08,-29.85 -11.08,-49.6l-6,0c0,20.5 3.89,38.04 11.82,52.49l5.26,-2.89zm-11.08,-49.6c0,-19.86 3.83,-36.37 11.33,-49.66l-5.23,-2.95c-8.12,14.41 -12.1,31.99 -12.1,52.61l6,0zm11.33,-49.67c7.55,-13.44 17.69,-23.52 30.41,-30.34l-2.83,-5.29c-13.8,7.39 -24.73,18.32 -32.81,32.7l5.23,2.93zm30.42,-30.34c12.78,-6.91 27.08,-10.38 42.96,-10.38l0,-6c-16.79,0 -32.08,3.68 -45.81,11.1l2.85,5.28zm42.96,-10.38c11.21,0 21.46,1.53 30.77,4.55l1.85,-5.7c-9.98,-3.25 -20.86,-4.85 -32.62,-4.85l0,6zm30.77,4.55c9.31,3.03 17.43,7.44 24.4,13.22l3.83,-4.62c-7.59,-6.29 -16.4,-11.06 -26.38,-14.3l-1.85,5.7zm24.41,13.23c6.95,5.7 12.55,12.74 16.81,21.14l5.35,-2.71c-4.62,-9.11 -10.74,-16.81 -18.35,-23.07l-3.81,4.64zm16.81,21.14c4.24,8.37 6.84,18.02 7.76,28.99l5.98,-0.5c-0.97,-11.63 -3.75,-22.05 -8.39,-31.2l-5.35,2.71zm87.26,142.38l0,3l2.23,0l0.64,-2.13l-2.87,-0.87zm-53.26,0l-2.85,-0.94l-1.3,3.94l4.15,0l0,-3zm60.01,-181.82l0,-3l-2.17,0l-0.68,2.06l2.85,0.94zm67.47,0l2.85,-0.94l-0.68,-2.06l-2.17,0l0,3zm60.02,181.82l0,3l4.14,0l-1.3,-3.94l-2.84,0.94zm-53.27,0l-2.87,0.87l0.64,2.13l2.23,0l0,-3zm-39.78,-131.75l2.88,-0.86l-0.65,-2.14l-2.23,0l0,3zm-1.42,0l0,-3l-2.22,0l-0.65,2.14l2.87,0.86zm-49.71,60.02l0,-3l-3,0l0,3l3,0zm100.14,0l3,0l0,-3l-3,0l0,3zm0,36.93l0,3l3,0l0,-3l-3,0zm-100.14,0l-3,0l0,3l3,0l0,-3zm9.94,31.8l-53.26,0l0,6l53.26,0l0,-6zm-50.42,3.94l60.02,-181.82l-5.7,-1.88l-60.01,181.82l5.69,1.88zm57.17,-179.76l67.47,0l0,-6l-67.47,0l0,6zm64.62,-2.06l60.02,181.82l5.69,-1.88l-60.01,-181.82l-5.7,1.88zm62.87,177.88l-53.27,0l0,6l53.27,0l0,-6zm-50.4,2.13l-39.77,-131.74l-5.75,1.73l39.78,131.75l5.74,-1.74zm-42.65,-133.88l-1.42,0l0,6l1.42,0l0,-6zm-4.29,2.14l-39.77,131.74l5.74,1.74l39.78,-131.75l-5.75,-1.73zm-46.84,63.88l100.14,0l0,-6l-100.14,0l0,6zm97.14,-3l0,36.93l6,0l0,-36.93l-6,0zm3,33.93l-100.14,0l0,6l100.14,0l0,-6zm-97.14,3l0,-36.93l-6,0l0,36.93l6,0zm143.27,-107.25l-3,0l0,3l3,0l0,-3zm0,-39.77l0,-3l-3,0l0,3l3,0zm158.02,0l3,0l0,-3l-3,0l0,3zm0,39.77l0,3l3,0l0,-3l-3,0zm-54.69,0l0,-3l-3,0l0,3l3,0zm0,142.05l0,3l3,0l0,-3l-3,0zm-48.65,0l-3,0l0,3l3,0l0,-3zm0,-142.05l3,0l0,-3l-3,0l0,3zm-51.68,0l0,-39.77l-6,0l0,39.77l6,0zm-3,-36.77l158.02,0l0,-6l-158.02,0l0,6zm155.02,-3l0,39.77l6,0l0,-39.77l-6,0zm3,36.77l-54.69,0l0,6l54.69,0l0,-6zm-57.69,3l0,142.05l6,0l0,-142.05l-6,0zm3,139.05l-48.65,0l0,6l48.65,0l0,-6zm-45.65,3l0,-142.05l-6,0l0,142.05l6,0zm-3,-145.05l-54.68,0l0,6l54.68,0l0,-6zm183.78,-36.77l3,0l0,-3l-3,0l0,3zm0,181.82l0,3l3,0l0,-3l-3,0zm-49.36,0l-3,0l0,3l3,0l0,-3zm0,-181.82l0,-3l-3,0l0,3l3,0zm46.36,0l0,181.82l6,0l0,-181.82l-6,0zm3,178.82l-49.36,0l0,6l49.36,0l0,-6zm-46.36,3l0,-181.82l-6,0l0,181.82l6,0zm-3,-178.82l49.36,0l0,-6l-49.36,0l0,6z" fill="#000000" id="svg_5" mask="url(#path-3-outside-1_9_45)"/>
 </g>
</svg>