<svg id="Layer_1" data-name="Layer 1" xmlns="http://www.w3.org/2000/svg" viewBox="0 0 600.96 638"><defs><style>.cls-1{fill:#fff;}.cls-2{fill:#e51e23;}</style></defs><title>Ducati Logo Vector</title><path class="cls-1" d="M253.12,235.5c-24.49,11.86-53.6,38.1-53.6,95.48a202,202,0,0,0,2.1,28.28l.58,4.43c3.53,26.34,14.4,106.64,54.65,191C297.41,639.47,335,693.5,395.6,754.18c.48.46,45.79,45.24,68.22,56.53A82.93,82.93,0,0,0,500,819h0a82.61,82.61,0,0,0,36.17-8.28c22.43-11.29,67.79-56.07,68.23-56.53C665,693.5,702.6,639.47,743.13,554.69c40.3-84.36,51.06-164.66,54.68-191.07l.6-4.5c10.69-76.24-22.11-109.31-51.47-123.62C672.74,199.33,589.67,181,500,181s-172.72,18.33-246.85,54.5" transform="translate(-199.52 -181)"/><path class="cls-2" d="M608.66,457.9c-159.66,25-236.89,67.17-274.53,106.92-28.85,30.49-18.79,53.89-11.08,67.37,24.72,38.69,52,71.81,87.39,107.17,11.31,11.31,47.24,44.85,62.75,52.62a61.88,61.88,0,0,0,53.58,0c15.53-7.77,51.47-41.31,62.8-52.62,58.79-58.77,95.26-111.28,134.68-193.7a575.34,575.34,0,0,0,36.91-102.32l.11-.49c-34.87.72-84.71,4.41-152.61,15M316.06,312.49h-3.12l-9.46,44.36h3.18A13.8,13.8,0,0,0,318,351.73c2.86-3.39,4.75-9.14,6.39-17s2.24-13.68.83-17-4-5.22-9.16-5.22M737.75,254.3C659.39,216.1,576.23,201.91,500,201.91S340.59,216.1,262.25,254.3c-27.79,13.55-41.82,39.31-41.82,76.68a185,185,0,0,0,1.91,25.34l.65,4.53a646.92,646.92,0,0,0,26.73,119.63c20.75-26.69,103.47-49.4,250.25-57.13,138.4-7.29,237.25-6.81,267.47-6.44,5.47-25.46,8.14-45.35,9.6-56.06l.62-4.53c7.2-51.29-6.23-85.61-39.91-102M357.58,335.57c-5.26,24.54-24.44,39.75-49.46,39.75H268.07l17.24-81.27h38.18c32.52,0,39.19,17.4,34.09,41.52m37.67,41.92c-24.56,0-36.52-9.84-32.36-29.39l11.47-54.05h32.22l-11.22,52.67c-1.36,6.42,1.16,8.91,4.53,8.91s6.95-2.49,8.31-8.91l11.19-52.67h32.2L440.14,348.1c-4.18,19.55-20.33,29.39-44.89,29.39m88.26,0c-28.48,0-38-17.38-32.52-43.16,4.62-25.33,23.33-42.45,50.83-42.45,20.49,0,36.05,8.38,31.11,32.24H503.41c1.52-9.23-1.46-11-5.43-11-8.33,0-10.89,8.52-13.73,21.6-2.56,12.35-3.92,21.61,4.2,21.61,4.2,0,7.5-2.45,9.81-11h30.17c-4.76,22.34-24.77,32.18-44.92,32.18m97.5-2.17-.37-13.07H557.3l-6,13.07H520.44l43.26-81.27h41.8l8.86,81.27Zm75.31,0h-32.2l12.67-59.44h-20l4.64-21.83h72.26L689,315.88H669Zm58.31,0H682.45l17.26-81.27h32.18ZM566.35,342.47h13.76l.07-30.67H580Z" transform="translate(-199.52 -181)"/></svg>